<svg xmlns="http://www.w3.org/2000/svg" xmlns:xlink="http://www.w3.org/1999/xlink" width="47.659" height="54.362" viewBox="0 0 47.659 54.362">
  <defs>
    <clipPath id="clip-path">
      <rect id="Rectangle_56" data-name="Rectangle 56" width="47.659" height="54.362" fill="none"/>
    </clipPath>
  </defs>
  <g id="Groupe_123" data-name="Groupe 123" transform="translate(-165 -31.579)">
    <ellipse id="Ellipse_48" data-name="Ellipse 48" cx="18.5" cy="15" rx="18.5" ry="15" transform="translate(170.067 39.343)" fill="#fff"/>
    <g id="Groupe_120" data-name="Groupe 120" transform="translate(165 31.579)">
      <g id="Groupe_119" data-name="Groupe 119" clip-path="url(#clip-path)">
        <path id="Tracé_253" data-name="Tracé 253" d="M31.983,13.094a20.065,20.065,0,0,0-14.521,33.93A62.366,62.366,0,0,0,23.137,53.8a56.024,56.024,0,0,1,6.869,8.556c0,.023,0,.046-.007.069-1.614.1-2.7.268-2.7.466,0,.172.814.326,2.086.427h6.992c1.272-.1,2.086-.254,2.086-.427,0-.2-1.089-.371-2.7-.466,0-.015,0-.029,0-.043A72.261,72.261,0,0,1,41.872,53.5c1.515-1.957,3.078-4,4.764-6.625A20.06,20.06,0,0,0,31.983,13.094m0,4.2c8.248,0,14.935,5.556,14.935,12.411S40.231,42.112,31.983,42.112,17.047,36.556,17.047,29.7s6.686-12.411,14.935-12.411m.9,42.5a2.878,2.878,0,0,0-.771.117c-.129-.961-.251-1.882-.395-2.98-.2-1.49-.39-2.68-.583-3.716.285.012.565.043.853.043a20.281,20.281,0,0,0,2.052-.1c-.315,1.972-.627,4-.987,6.656-.057,0-.111-.017-.169-.017m-2.315-6.607c.2,1.053.4,2.263.6,3.815.151,1.15.276,2.1.412,3.113a2.9,2.9,0,0,0-.624.423,34.219,34.219,0,0,0-4.158-7.916l-.05-.077a19.99,19.99,0,0,0,3.819.642m4.01,7.162a2.88,2.88,0,0,0-.98-.455c.369-2.737.69-4.8,1.014-6.826a19.974,19.974,0,0,0,3.6-.8l-.006.012c-1.437,3.118-2.8,6.079-3.629,8.074M23.541,53.423c-1.28-1.377-2.585-2.788-3.905-4.431a20.013,20.013,0,0,0,6.313,3.341l.383.589a33.411,33.411,0,0,1,4.193,8.083,2.876,2.876,0,0,0-.341.612,57.723,57.723,0,0,0-6.644-8.194m17.894-.259a75.325,75.325,0,0,0-5.868,8.441,2.883,2.883,0,0,0-.558-.867c.827-2.013,2.276-5.159,3.694-8.233.078-.17.157-.34.235-.51A20.057,20.057,0,0,0,44.8,48.638c-1.161,1.664-2.274,3.124-3.36,4.527" transform="translate(-8.138 -8.954)" fill="#161615"/>
        <path id="Tracé_254" data-name="Tracé 254" d="M2.456,61.972l-2-.373a.383.383,0,0,0-.14.753l2,.373a.452.452,0,0,0,.07.007.384.384,0,0,0,.07-.761" transform="translate(0 -42.12)" fill="#161615"/>
        <path id="Tracé_255" data-name="Tracé 255" d="M4.1,55.156l-1.958-.563a.377.377,0,0,0-.475.262.381.381,0,0,0,.263.473l1.958.563a.352.352,0,0,0,.106.017.383.383,0,0,0,.106-.752" transform="translate(-1.13 -37.32)" fill="#161615"/>
        <path id="Tracé_256" data-name="Tracé 256" d="M6.388,48.535l-1.9-.746a.383.383,0,1,0-.281.713l1.9.746a.373.373,0,0,0,.14.028.384.384,0,0,0,.14-.74" transform="translate(-2.714 -32.66)" fill="#161615"/>
        <path id="Tracé_257" data-name="Tracé 257" d="M8.944,42.85a.383.383,0,0,0,.347-.683l-1.816-.923a.383.383,0,0,0-.347.683Z" transform="translate(-4.731 -28.175)" fill="#161615"/>
        <path id="Tracé_258" data-name="Tracé 258" d="M12.382,36.745a.383.383,0,0,0,.41-.646l-1.719-1.091a.383.383,0,0,0-.41.646Z" transform="translate(-7.17 -23.899)" fill="#161615"/>
        <path id="Tracé_259" data-name="Tracé 259" d="M16.381,31a.39.39,0,0,0,.236.081.384.384,0,0,0,.235-.687l-1.608-1.252a.383.383,0,0,0-.471.605Z" transform="translate(-10.001 -19.87)" fill="#161615"/>
        <path id="Tracé_260" data-name="Tracé 260" d="M20.912,25.656a.383.383,0,0,0,.526-.558l-1.481-1.4a.383.383,0,0,0-.526.558Z" transform="translate(-13.205 -16.135)" fill="#161615"/>
        <path id="Tracé_261" data-name="Tracé 261" d="M25.931,20.772a.382.382,0,0,0,.288.131.375.375,0,0,0,.252-.1.383.383,0,0,0,.036-.541l-1.342-1.533a.384.384,0,0,0-.576.506Z" transform="translate(-16.75 -12.721)" fill="#161615"/>
        <path id="Tracé_262" data-name="Tracé 262" d="M31.393,16.384a.38.38,0,0,0,.311.161.373.373,0,0,0,.223-.074.381.381,0,0,0,.088-.533l-1.19-1.655a.383.383,0,0,0-.622.447Z" transform="translate(-20.604 -9.657)" fill="#161615"/>
        <path id="Tracé_263" data-name="Tracé 263" d="M37.247,12.541a.386.386,0,0,0,.331.191.392.392,0,0,0,.193-.054.384.384,0,0,0,.138-.525l-1.027-1.76a.384.384,0,0,0-.663.388Z" transform="translate(-24.733 -6.977)" fill="#161615"/>
        <path id="Tracé_264" data-name="Tracé 264" d="M43.441,9.274a.383.383,0,0,0,.7-.321L43.284,7.1a.383.383,0,0,0-.7.321Z" transform="translate(-29.098 -4.705)" fill="#161615"/>
        <path id="Tracé_265" data-name="Tracé 265" d="M50.279,6.867a.374.374,0,0,0,.126-.022.384.384,0,0,0,.236-.489l-.674-1.922a.384.384,0,0,0-.724.255l.674,1.922a.386.386,0,0,0,.362.257" transform="translate(-33.659 -2.856)" fill="#161615"/>
        <path id="Tracé_266" data-name="Tracé 266" d="M56.991,4.86a.325.325,0,0,0,.092-.013.382.382,0,0,0,.28-.464l-.488-1.978a.372.372,0,0,0-.464-.279.382.382,0,0,0-.28.464l.489,1.978a.385.385,0,0,0,.372.292" transform="translate(-38.376 -1.444)" fill="#161615"/>
        <path id="Tracé_267" data-name="Tracé 267" d="M63.862,3.509A.293.293,0,0,0,63.92,3.5a.382.382,0,0,0,.323-.434l-.3-2.015a.376.376,0,0,0-.436-.323.383.383,0,0,0-.323.434l.3,2.014a.385.385,0,0,0,.378.329" transform="translate(-43.206 -0.496)" fill="#161615"/>
        <path id="Tracé_268" data-name="Tracé 268" d="M70.834,2.824l.019,0a.384.384,0,0,0,.364-.4l-.1-2.035a.384.384,0,0,0-.766.04l.1,2.035a.385.385,0,0,0,.383.364" transform="translate(-48.104 -0.015)" fill="#161615"/>
        <path id="Tracé_269" data-name="Tracé 269" d="M77.626,2.8l.017,0a.383.383,0,0,0,.383-.367L78.116.4a.384.384,0,0,0-.367-.4.415.415,0,0,0-.4.366L77.259,2.4a.383.383,0,0,0,.366.4" transform="translate(-52.831 0.001)" fill="#161615"/>
        <path id="Tracé_270" data-name="Tracé 270" d="M84.145,3.436a.524.524,0,0,0,.054,0,.383.383,0,0,0,.379-.331l.283-2.016a.384.384,0,0,0-.326-.434A.389.389,0,0,0,84.1.985L83.819,3a.384.384,0,0,0,.326.434" transform="translate(-57.315 -0.448)" fill="#161615"/>
        <path id="Tracé_271" data-name="Tracé 271" d="M90.576,4.737a.381.381,0,0,0,.463-.284l.475-1.98a.383.383,0,1,0-.746-.177l-.474,1.98a.384.384,0,0,0,.283.462" transform="translate(-61.737 -1.369)" fill="#161615"/>
        <path id="Tracé_272" data-name="Tracé 272" d="M96.863,6.678a.367.367,0,0,0,.125.022.387.387,0,0,0,.363-.26l.661-1.926a.384.384,0,0,0-.726-.248l-.661,1.926a.382.382,0,0,0,.238.486" transform="translate(-66.06 -2.739)" fill="#161615"/>
        <path id="Tracé_273" data-name="Tracé 273" d="M103.106,9.286a.386.386,0,0,0,.349-.225l.842-1.854a.384.384,0,0,0-.7-.318l-.842,1.854a.383.383,0,0,0,.19.508.373.373,0,0,0,.159.035" transform="translate(-70.244 -4.557)" fill="#161615"/>
        <path id="Tracé_274" data-name="Tracé 274" d="M108.967,12.479a.384.384,0,0,0,.332-.194l1.015-1.766a.383.383,0,1,0-.665-.38L108.635,11.9a.382.382,0,0,0,.141.522.376.376,0,0,0,.191.052" transform="translate(-74.252 -6.8)" fill="#161615"/>
        <path id="Tracé_275" data-name="Tracé 275" d="M114.291,16.186a.38.38,0,0,0,.535-.09L116,14.433a.384.384,0,0,0-.626-.443L114.2,15.652a.383.383,0,0,0,.091.534" transform="translate(-78.045 -9.457)" fill="#161615"/>
        <path id="Tracé_276" data-name="Tracé 276" d="M119.445,20.482a.38.38,0,0,0,.25.094.385.385,0,0,0,.29-.133l1.331-1.542a.384.384,0,0,0-.58-.5l-1.331,1.542a.383.383,0,0,0,.04.541" transform="translate(-81.588 -12.492)" fill="#161615"/>
        <path id="Tracé_277" data-name="Tracé 277" d="M124.19,25.282a.381.381,0,0,0,.277.12.388.388,0,0,0,.265-.107l1.473-1.407a.383.383,0,0,0,.012-.541.387.387,0,0,0-.542-.013L124.2,24.741a.382.382,0,0,0-.012.541" transform="translate(-84.852 -15.884)" fill="#161615"/>
        <path id="Tracé_278" data-name="Tracé 278" d="M128.488,30.541a.383.383,0,0,0,.538.063l1.6-1.261a.385.385,0,0,0,.064-.54.389.389,0,0,0-.538-.063L128.551,30a.384.384,0,0,0-.064.539" transform="translate(-87.807 -19.598)" fill="#161615"/>
        <path id="Tracé_279" data-name="Tracé 279" d="M132.292,36.2a.383.383,0,0,0,.322.177.377.377,0,0,0,.208-.063l1.712-1.1a.382.382,0,1,0-.415-.642l-1.712,1.1a.382.382,0,0,0-.114.528" transform="translate(-90.423 -23.599)" fill="#161615"/>
        <path id="Tracé_280" data-name="Tracé 280" d="M135.571,42.237a.38.38,0,0,0,.517.164l1.81-.936a.383.383,0,1,0-.353-.68l-1.809.937a.382.382,0,0,0-.164.515" transform="translate(-92.677 -27.862)" fill="#161615"/>
        <path id="Tracé_281" data-name="Tracé 281" d="M140.9,47.526a.384.384,0,0,0-.5-.214l-1.891.759a.384.384,0,1,0,.286.713l1.891-.759a.384.384,0,0,0,.212-.5" transform="translate(-94.552 -32.335)" fill="#161615"/>
        <path id="Tracé_282" data-name="Tracé 282" d="M143.134,54.355a.381.381,0,0,0-.476-.259l-1.955.576a.384.384,0,0,0,.108.752.364.364,0,0,0,.108-.017l1.955-.576a.383.383,0,0,0,.26-.476" transform="translate(-96.029 -36.981)" fill="#161615"/>
        <path id="Tracé_283" data-name="Tracé 283" d="M144.294,61.092l-2,.386a.384.384,0,0,0,.073.761.527.527,0,0,0,.073-.007l2-.386a.384.384,0,0,0-.146-.753" transform="translate(-97.092 -41.773)" fill="#161615"/>
        <path id="Tracé_284" data-name="Tracé 284" d="M50.339,50.244a11.5,11.5,0,0,0,11.5-11.5c0-7.073-5.778-9.469-11.431-9.469-5.473,0-11.563,3.145-11.563,9.469a11.5,11.5,0,0,0,11.5,11.5m0-18.932a7.359,7.359,0,0,1,4.892,1.882,2.428,2.428,0,0,1,.682-.138,2.5,2.5,0,0,1,1.707,4.332,7.409,7.409,0,1,1-7.281-6.076" transform="translate(-26.561 -20.02)" fill="#161615"/>
        <path id="Tracé_285" data-name="Tracé 285" d="M61.679,51.9a6.042,6.042,0,0,0,6.177-7.026,2.419,2.419,0,0,1-.6.122A2.511,2.511,0,0,1,65.478,40.7a6.244,6.244,0,1,0-3.8,11.191" transform="translate(-37.901 -26.934)" fill="#161615"/>
      </g>
    </g>
  </g>
</svg>
