<?xml version="1.0" encoding="UTF-8"?>
<svg id="Calque_1" data-name="Calque 1" xmlns="http://www.w3.org/2000/svg" viewBox="0 0 303.158424583114538 32.791107823399216">
  <polygon points="26.81826037071005 17.26804549854387 38.31972521446005 17.23179061573137 38.31972521446005 15.61264999073137 26.80629748008505 15.64927108448137 26.79433458946005 10.53891952198137 40.59072130821005 10.53891952198137 40.59072130821005 8.92026717823137 25.17568224571005 8.92026717823137 25.20766466758505 22.54746444385637 13.15175646446005 22.54746444385637 13.18764513633505 8.92026717823137 11.56887072227255 8.92026717823137 11.53237169883505 24.14231307666887 11.54506701133505 24.14231307666887 11.54506701133505 24.16623885791887 25.21144884727255 24.16623885791887 26.80263537071005 24.16623885791887 40.61464708946005 24.16623885791887 40.61464708946005 22.54746444385637 26.83022326133505 22.54746444385637 26.81826037071005 17.26804549854387" style="fill: #1d1d1b; stroke-width: 0px;"/>
  <path d="m53.03627794883505,14.13913924854387c.3507080078125-.7127685546875.821533203125-1.3411865234375,1.4134521484375-1.8724365234375.5799560546875-.53173828125,1.2806396484375-.966552734375,2.0538330078125-1.268798828125.78515625-.3018798828125,1.630615234375-.470947265625,2.5128173828125-.470947265625.5919189453125,0,1.1478271484375.072509765625,1.691162109375.205322265625.5440673828125.1328125,1.0509033203125.326171875,1.534423828125.579833984375.4827880859375.253662109375.91796875.56787109375,1.3165283203125.9183349609375.326171875.28955078125.6044921875.603759765625.858154296875.9422607421875l1.449462890625-.8094482421875c-.314208984375-.447021484375-.67626953125-.8577880859375-1.099365234375-1.2445068359375-.507568359375-.458984375-1.062744140625-.85791015625-1.667236328125-1.1839599609375-1.20751953125-.676513671875-2.59716796875-1.0631103515625-4.0831298828125-1.0631103515625-1.35302734375,0-2.6097412109375.26611328125-3.7091064453125.79736328125-.736572265625.3623046875-1.425537109375.845703125-2.053955078125,1.437744140625-.7850341796875.737060546875-1.376953125,1.5946044921875-1.787353515625,2.572998046875-.4111328125.966552734375-.616455078125,1.9814453125-.616455078125,3.03271484375,0,2.0899658203125.78515625,3.86572265625,2.3680419921875,5.33935546875,1.5948486328125,1.4859619140625,3.51513671875,2.223388671875,5.7750244140625,2.223388671875,2.21044921875,0,4.2158203125-.78564453125,5.774169921875-2.2471923828125.423095703125-.3865966796875.78515625-.8096923828125,1.08740234375-1.2806396484375l-1.4493408203125-.78515625c-.2537841796875.3499755859375-.5440673828125.6641845703125-.8702392578125.9541015625-.3865966796875.350341796875-.8216552734375.66455078125-1.2926025390625.91845703125-.4835205078125.253662109375-1.0030517578125.458984375-1.5462646484375.591796875-.54345703125.1328125-1.111328125.2052001953125-1.703125.2052001953125-.89404296875,0-1.727783203125-.15673828125-2.512939453125-.458984375-.785888671875-.314208984375-1.473876953125-.7369384765625-2.06640625-1.2684326171875-.5919189453125-.53173828125-1.0509033203125-1.15966796875-1.40087890625-1.884765625-.350830078125-.724609375-.51953125-1.497802734375-.51953125-2.30712890625,0-.471435546875.072509765625-1.01513671875.205322265625-1.5826416015625.0843505859375-.3504638671875.2052001953125-.7008056640625.338134765625-.99072265625Z" style="fill: #1d1d1b; stroke-width: 0px;"/>
  <polygon points="69.78261583946005 8.92026717823137 69.74611681602255 24.16623885791887 71.43727892539755 24.16623885791887 71.40151232383505 8.92026717823137 69.78261583946005 8.92026717823137" style="fill: #1d1d1b; stroke-width: 0px;"/>
  <polygon points="89.34206408164755 21.76194198291887 77.75624865196005 8.92026717823137 76.13759630821005 8.92026717823137 76.10170763633505 24.16623885791887 77.72048205039755 24.16623885791887 77.74428576133505 11.34824569385637 89.34206408164755 24.16623885791887 90.96083849571005 24.16623885791887 90.99745958946005 8.92026717823137 89.37856310508505 8.92026717823137 89.34206408164755 21.76194198291887" style="fill: #1d1d1b; stroke-width: 0px;"/>
  <polygon points="95.98867052696005 17.24375350635637 107.49013537071005 17.20762069385637 107.49013537071005 15.58884627979387 95.97670763633505 15.62510116260637 95.96474474571005 10.51474960010637 109.76113146446005 10.51474960010637 109.76113146446005 8.89585311573137 100.42250841758505 8.89585311573137 108.31105822227255 6.80588729541887 108.31105822227255 5.16294295948137 94.34609240196005 8.89585311573137 94.38198107383505 24.14231307666887 109.78505724571005 24.14231307666887 109.78505724571005 22.52329452198137 96.00063341758505 22.52329452198137 95.98867052696005 17.24375350635637" style="fill: #1d1d1b; stroke-width: 0px;"/>
  <polygon points="121.38491076133505 22.47507674854387 114.06362169883505 8.92026717823137 112.14260119102255 8.92026717823137 112.10683458946005 24.16623885791887 113.72548693321005 24.16623885791887 113.74941271446005 11.86777694385637 120.46620958946005 24.16623885791887 122.30287951133505 24.16623885791887 128.98390978477255 11.90390975635637 128.95925158164755 24.16623885791887 130.57802599571005 24.16623885791887 130.61464708946005 8.92026717823137 128.69350451133505 8.92026717823137 121.38491076133505 22.47507674854387" style="fill: #1d1d1b; stroke-width: 0px;"/>
  <path d="m140.37783068321005,8.90781600635637l-7.67138671875,15.2584228515625h1.8248291015625l3.3941650390625-6.7652587890625h6.704833984375l3.39501953125,6.7652587890625h1.836669921875l-7.672119140625-15.2584228515625h-1.81201171875Zm-1.642578125,6.874267578125l2.548583984375-5.061767578125,2.5374755859375,5.061767578125h-5.0860595703125Z" style="fill: #1d1d1b; stroke-width: 0px;"/>
  <polygon points="148.82387560508505 10.51474960010637 155.61379259727255 10.51474960010637 155.57729357383505 24.16623885791887 157.19594591758505 24.16623885791887 157.23256701133505 10.51474960010637 164.21498888633505 10.51474960010637 164.21498888633505 8.90781600635637 148.82387560508505 8.90781600635637 148.82387560508505 10.51474960010637" style="fill: #1d1d1b; stroke-width: 0px;"/>
  <path d="m180.87722033164755,13.41416366260637c-.447021484375-.9422607421875-1.0269775390625-1.73974609375-1.7396240234375-2.4039306640625-.7254638671875-.6646728515625-1.571044921875-1.1839599609375-2.5494384765625-1.5587158203125-.9783935546875-.386474609375-2.0052490234375-.579833984375-3.0806884765625-.579833984375h-.168701171875c-.653076171875,0-1.292724609375.084716796875-1.9091796875.24169921875-.6282958984375.1572265625-1.208251953125.3743896484375-1.7276611328125.65234375-1.05078125.543701171875-1.993408203125,1.31689453125-2.6815185546875,2.23486328125-.3507080078125.4593505859375-.640380859375.942626953125-.882080078125,1.437744140625-.2537841796875.4951171875-.43505859375,1.0146484375-.5679931640625,1.534423828125-.1328125.5313720703125-.1932373046875,1.05078125-.1932373046875,1.5703125v.1812744140625c.03662109375,1.099365234375.277587890625,2.1143798828125.724609375,3.0565185546875.447021484375.9422607421875,1.0269775390625,1.73974609375,1.751708984375,2.3919677734375.725341796875.6522216796875,1.582763671875,1.1717529296875,2.561279296875,1.5462646484375.9783935546875.374755859375,2.00537109375.55615234375,3.0927734375.55615234375,1.075439453125,0,2.102294921875-.193359375,3.0806884765625-.5679931640625.9783935546875-.3865966796875,1.823974609375-.9061279296875,2.5494384765625-1.5706787109375.712646484375-.66455078125,1.2926025390625-1.461669921875,1.7396240234375-2.391845703125.447021484375-.9422607421875.7000732421875-1.9453125.74853515625-3.0203857421875h.011962890625v-.3018798828125h-.011962890625c-.0484619140625-1.075439453125-.301513671875-2.078125-.74853515625-3.00830078125Zm-1.4500732421875,5.6778564453125c-.35009765625.76123046875-.80908203125,1.4134521484375-1.401611328125,1.9329833984375-.579833984375.519775390625-1.256103515625.9183349609375-2.0411376953125,1.208251953125-.785888671875.2900390625-1.6068115234375.43505859375-2.4888916015625.43505859375-.8822021484375,0-1.703125-.14501953125-2.489013671875-.43505859375-.773193359375-.3018798828125-1.4493408203125-.712646484375-2.029296875-1.232177734375-.56787109375-.5194091796875-1.02685546875-1.172119140625-1.376953125-1.932861328125-.3387451171875-.76123046875-.52001953125-1.594970703125-.5439453125-2.489013671875.02392578125-.906005859375.2052001953125-1.7396240234375.5439453125-2.50048828125.35009765625-.76123046875.80908203125-1.41357421875,1.376953125-1.9329833984375.5799560546875-.5194091796875,1.256103515625-.9302978515625,2.029296875-1.22021484375.785888671875-.3018798828125,1.6068115234375-.447021484375,2.489013671875-.447021484375.882080078125,0,1.7030029296875.1451416015625,2.4888916015625.43505859375.7850341796875.2899169921875,1.4613037109375.700439453125,2.0411376953125,1.2198486328125.592529296875.519775390625,1.051513671875,1.1597900390625,1.401611328125,1.9329833984375.350830078125.76123046875.5440673828125,1.6068115234375.555908203125,2.5128173828125-.0118408203125.9063720703125-.205078125,1.73974609375-.555908203125,2.5128173828125Z" style="fill: #1d1d1b; stroke-width: 0px;"/>
  <path d="m191.96889513633505,17.30430038135637h6.02880859375c-.1329345703125,1.074951171875-.507568359375,2.017578125-1.112060546875,2.8388671875-.603759765625.8094482421875-1.364990234375,1.437744140625-2.294921875,1.87255859375-.918701171875.4228515625-1.9210205078125.640380859375-3.020263671875.640380859375-1.171875,0-2.2353515625-.241455078125-3.1898193359375-.7247314453125-.9537353515625-.4832763671875-1.7149658203125-1.1719970703125-2.27099609375-2.0538330078125-.5679931640625-.89404296875-.8575439453125-1.90869140625-.8695068359375-3.0565185546875.011962890625-1.002685546875.168701171875-1.8968505859375.494873046875-2.6942138671875.326171875-.797119140625.773193359375-1.44970703125,1.35302734375-1.9691162109375.56787109375-.5194091796875,1.2568359375-.9302978515625,2.0419921875-1.2078857421875.7850341796875-.278076171875,1.642578125-.410888671875,2.585205078125-.4228515625h.0364990234375c.4947509765625,0,.9417724609375.02392578125,1.3284912109375.06005859375.386474609375.03662109375.8096923828125.1090087890625,1.2567138671875.241943359375.4471435546875.1328125.8575439453125.3017578125,1.22021484375.519287109375.7127685546875.4351806640625,1.4739990234375,1.22021484375,2.0897216796875,2.283447265625l1.317138671875-.76123046875c-.3260498046875-.65234375-.725341796875-1.219970703125-1.184326171875-1.7034912109375-.458984375-.4952392578125-.929931640625-.8817138671875-1.401611328125-1.1597900390625-.470947265625-.277587890625-.990234375-.4951171875-1.5582275390625-.664306640625-1.1478271484375-.33837890625-1.993408203125-.4107666015625-3.0926513671875-.4107666015625-1.2076416015625,0-2.319580078125.2056884765625-3.3465576171875.6160888671875-1.0269775390625.39892578125-1.8843994140625.95458984375-2.5733642578125,1.6552734375-.68798828125.700439453125-1.2320556640625,1.522216796875-1.630615234375,2.476318359375-.3984375.95458984375-.603759765625,1.969482421875-.61572265625,3.0565185546875v.1571044921875c.02392578125,1.0511474609375.2530517578125,2.0418701171875.67626953125,2.9598388671875.423095703125.9183349609375.990234375,1.7034912109375,1.7030029296875,2.3438720703125.7135009765625.6402587890625,1.5589599609375,1.135498046875,2.5374755859375,1.5101318359375.9783935546875.3746337890625,2.00537109375.5552978515625,3.1046142578125.5552978515625,1.3165283203125,0,2.5494384765625-.2777099609375,3.6845703125-.821044921875,1.1358642578125-.555908203125,2.0777587890625-1.31689453125,2.8270263671875-2.295654296875v3.0203857421875h1.6187744140625v-8.480712890625h-7.7437744140625v1.6187744140625Z" style="fill: #1d1d1b; stroke-width: 0px;"/>
  <path d="m215.19033068321005,8.87168319385637l-10.00341796875.0361328125v.012451171875h-1.292724609375l.03662109375,15.2459716796875h1.61865234375l-.0118408203125-6.7772216796875h3.4912109375c1.5225830078125,0,2.621826171875,1.860107421875,2.621826171875,3.213134765625,0,1.41357421875.6761474609375,2.6461181640625,2.2344970703125,3.273681640625.688720703125.2784423828125,1.30517578125.2904052734375,2.1746826171875.314208984375.2178955078125,0,.616455078125,0,1.2083740234375-.011962890625l1.473876953125-.0118408203125.011962890625-1.54638671875c-1.534423828125,0-2.5247802734375.084716796875-3.2979736328125-.011962890625-1.0030517578125-.1090087890625-1.497802734375-.120849609375-2.0052490234375-1.0030517578125-.22998046875-.386474609375-.25390625-1.0146484375-.25390625-1.58251953125,0-.567626953125-.0245361328125-1.171630859375-.3984375-1.787841796875-.193359375-.30224609375-.459716796875-.591796875-.809814453125-.845458984375h2.7181396484375c.6282958984375,0,1.208251953125-.084716796875,1.7396240234375-.241943359375.51953125-.1689453125.966552734375-.3984375,1.3292236328125-.6884765625.3499755859375-.27783203125.6522216796875-.615966796875.906005859375-1.0025634765625.2537841796875-.3746337890625.4351806640625-.773193359375.5433349609375-1.1964111328125.10888671875-.410400390625.16943359375-.833251953125.16943359375-1.2802734375,0-1.02685546875-.4105224609375-2.0418701171875-1.099365234375-2.8270263671875-.6888427734375-.773193359375-1.81201171875-1.2806396484375-3.104736328125-1.2806396484375Zm2.367431640625,5.2674560546875c-.1082763671875.3260498046875-.2657470703125.5799560546875-.458984375.7850341796875-.193359375.2056884765625-.4224853515625.374755859375-.688232421875.507568359375-.531982421875.2537841796875-1.0872802734375.350341796875-1.7156982421875.350341796875h-9.1572265625l-.011962890625-5.2188720703125h9.64013671875c.8096923828125.0118408203125,1.4254150390625.2294921875,1.8604736328125.6522216796875.4351806640625.4228515625.6650390625,1.0269775390625.677001953125,1.824462890625.011962890625.410400390625-.03662109375.773193359375-.1455078125,1.0992431640625Z" style="fill: #1d1d1b; stroke-width: 0px;"/>
  <path d="m227.88893908164755,8.90781600635637l-7.67138671875,15.2584228515625h1.8248291015625l3.3941650390625-6.7652587890625h6.704833984375l3.3948974609375,6.7652587890625h1.8367919921875l-7.672119140625-15.2584228515625h-1.81201171875Zm-1.6427001953125,6.874267578125l2.5487060546875-5.061767578125,2.5374755859375,5.061767578125h-5.086181640625Z" style="fill: #1d1d1b; stroke-width: 0px;"/>
  <path d="m250.91713732383505,8.87168319385637l-10.0029296875.0361328125v.012451171875h-1.29248046875l.0364990234375,15.2459716796875h1.6187744140625l-.011962890625-6.7772216796875h9.169189453125c.62841796875,0,1.208251953125-.084716796875,1.73974609375-.2537841796875,1.05078125-.326171875,1.739501953125-.9061279296875,2.235107421875-1.67919921875.2530517578125-.3746337890625.434326171875-.773193359375.5433349609375-1.1964111328125.1090087890625-.410400390625.16943359375-.833251953125.16943359375-1.2802734375,0-1.25634765625-.5679931640625-2.4404296875-1.5709228515625-3.249755859375-.664306640625-.53173828125-1.582275390625-.85791015625-2.6337890625-.85791015625Zm1.9090576171875,6.052490234375c-.5919189453125.6162109375-1.4620361328125.85791015625-2.4039306640625.85791015625h-9.1572265625l-.0126953125-5.2188720703125h9.640869140625c.809814453125.0118408203125,1.425537109375.2294921875,1.860595703125.6522216796875.43505859375.4228515625.6641845703125,1.0269775390625.6761474609375,1.824462890625.0364990234375.8212890625-.2171630859375,1.48583984375-.603759765625,1.88427734375Z" style="fill: #1d1d1b; stroke-width: 0px;"/>
  <polygon points="271.05776232383505 8.90781600635637 271.06972521446005 15.61264999073137 258.96462267539755 15.64927108448137 258.95265978477255 8.90781600635637 257.33388537071005 8.90781600635637 257.37050646446005 24.16623885791887 258.98915880821005 24.16623885791887 258.97719591758505 17.26804549854387 271.08242052696005 17.23179061573137 271.09438341758505 24.16623885791887 272.71315783164755 24.16623885791887 272.67665880821005 8.90781600635637 271.05776232383505 8.90781600635637" style="fill: #1d1d1b; stroke-width: 0px;"/>
  <polygon points="277.83730333946005 22.54746444385637 277.82534044883505 17.26804549854387 289.32607287071005 17.23179061573137 289.32607287071005 15.61264999073137 277.81264513633505 15.64927108448137 277.80068224571005 10.53891952198137 291.59706896446005 10.53891952198137 291.59706896446005 8.92026717823137 276.18202990196005 8.92026717823137 276.21865099571005 24.16623885791887 291.62172716758505 24.16623885791887 291.62172716758505 22.54746444385637 277.83730333946005 22.54746444385637" style="fill: #1d1d1b; stroke-width: 0px;"/>
</svg>