<svg xmlns="http://www.w3.org/2000/svg" width="29.179" height="32.421" viewBox="0 0 29.179 32.421">
  <path id="Icon_material-date-range" data-name="Icon material-date-range" d="M14.226,17.589H10.984v3.242h3.242Zm6.484,0H17.468v3.242H20.71Zm6.484,0H23.952v3.242h3.242ZM30.437,6.242H28.816V3H25.574V6.242H12.605V3H9.363V6.242H7.742A3.227,3.227,0,0,0,4.516,9.484L4.5,32.179a3.241,3.241,0,0,0,3.242,3.242H30.437a3.252,3.252,0,0,0,3.242-3.242V9.484A3.252,3.252,0,0,0,30.437,6.242Zm0,25.937H7.742V14.347H30.437Z" transform="translate(-4.5 -3)" fill="#fff"/>
</svg>
