<?xml version="1.0" encoding="UTF-8"?>
<svg id="Calque_1" data-name="Calque 1" xmlns="http://www.w3.org/2000/svg" viewBox="0 0 68.454845770531392 59.873622603345211">
  <path d="m45.969530591097282,17.465546299961716h-24.00390625c-2.333984375.0068359375-4.2392578125,1.912109375-4.24609375,4.25v18.00390625c.0068359375,2.333984375,1.912109375,4.2392578125,4.25,4.24609375h24.00390625c2.333984375-.0068359375,4.2392578125-1.912109375,4.24609375-4.25v-18.00390625c-.0068359375-2.333984375-1.912109375-4.2392578125-4.25-4.24609375Zm-23.9990234375,2.5h23.9951171875c.7613525390625.0023193359375,1.40478515625.4952392578125,1.646484375,1.174072265625l-13.642578125,9.550537109375-13.64208984375-9.55029296875c.2420654296875-.6790771484375.884033203125-1.1712646484375,1.64306640625-1.17431640625Zm23.9990234375,21.5h-23.99609375c-.96484375-.0029296875-1.7509765625-.7890625-1.75390625-1.75v-15.598876953125l13.033203125,9.123291015625c.21484375.150390625.4658203125.2255859375.716796875.2255859375s.501953125-.0751953125.716796875-.2255859375l13.033203125-9.123291015625v15.594970703125c-.0029296875.96484375-.7890625,1.7509765625-1.75,1.75390625Z" style="fill: #fff; stroke-width: 0px;"/>
</svg>