<?xml version="1.0" encoding="UTF-8"?><svg id="Calque_1" xmlns="http://www.w3.org/2000/svg" viewBox="0 0 158.79313680251289 91.634706982120406"><g id="Groupe_69"><g id="Groupe_68"><g id="Groupe_67"><path id="Tracé_70" d="M153.798760470401248,12.763501836646356c-6.919627019109612.477609764059707-12.920006178514086-4.736210004788518-13.41301803629176-11.654751680444861l-.014980000172727-.213572007057337L12.748522496434816,9.846637671354983l.014980000172727.213572007057337c.477606423724865,6.919620304201089-4.736212401938246,12.920006092595031-11.654752500247923,13.413012101041204l-.214570009105046.015050000313749,3.885629870745106,55.397981350654845.214570009105046-.015050000314659c6.919622475747929-.477608488938131,12.92000978334454,4.736218359987106,13.413012892680854,11.65475803397203l.01504974371619.214566350750829,127.622239937502854-8.951459522209916-.0150497437171-.214566350750829c-.477600664100464-6.91962000579224,4.736210956554714-12.920006245272816,11.654758177917756-13.413010840433344l.214566350750829-.0150497437171-3.885630404804033-55.397988964788965-.214566350750829.01504974371619ZM9.699991913022131,73.837504390918184c-.996533828697466.069897160827168-1.861046608513789-.681288411895366-1.930943802720321-1.67782271647593-.069897194205623-.996534304580564.681289893905159-1.861049342696788,1.677823722602625-1.930946503525774s1.861047113484346.681292202272743,1.93094430768997,1.677826506853307h0c.069896242439427.996534371339294-.681290874757906,1.861045585697866-1.677824227572273,1.930942713148397M9.317861937030102,68.389422615831791c-.996533828697466.069897160827168-1.861046608513789-.681288411893547-1.930943802720321-1.67782271647593-.069897194205623-.996534304580564.68128989390425-1.861049342698607,1.677823722602625-1.930946503525774.996533828697466-.069897160827168,1.861047113484346.681292202274562,1.93094430768997,1.677826506855126h0c.069896242439427.996534371337475-.681290874757906,1.861045585697866-1.677824227572273,1.930942713146578M8.935731961038073,62.941340840745397c-.996533828697466.069897160827168-1.861046608513789-.681288411895366-1.930943802720321-1.67782271647593-.069897194205623-.996534304580564.68128989390425-1.861049342696788,1.677823722601715-1.930946503525774s1.861047113484346.681292202272743,1.930944307690879,1.677826506853307h0c.069896242439427.996534371339294-.681290874757906,1.861045585697866-1.677824227572273,1.930942713148397M8.553601985046043,57.493259065659004c-.996533828697466.069897160827168-1.861046608513789-.681288411893547-1.930943802720321-1.67782271647593s.68128989390425-1.861049342698607,1.677823722601715-1.930946503525774,1.861047113484346.681292202274562,1.930944307690879,1.677826506855126h0c.069896242439427.996534371337475-.681290874758815,1.861045585697866-1.677824227572273,1.930942713146578M8.171472009054014,52.04517729057261c-.996533828697466.069897160827168-1.861046399659244-.681292252342246-1.930942880040675-1.677826606990493-.069896718322525-.996534337959019.681291350641914-1.861045619076322,1.677825179339379-1.930942779903489s1.861046637601248.681292235651199,1.930942880040675,1.677826606988674c.000046730041504.000666236894176.000093193054454.001328666721747.000138971328852.001994970374653.069896242439427.996534371337475-.681290874757906,1.861045585697866-1.677824227572273,1.930942713146578M7.789481956157942,46.59909041910214c-.996533828697466.069897160827168-1.861046608513789-.681288411894457-1.930943802720321-1.67782271647593-.069897194205623-.996534304580564.68128989390425-1.861049342697697,1.677823722601715-1.930946503525774s1.861047113484346.681292202273653,1.930944307690879,1.677826506854217h0c.070447315528327.996495718917686-.680262656463128,1.861421084480753-1.676757765982984,1.931870270163927l-.000996500040856.000069894791523M7.407421941714347,41.152006095823708c-.996533828698375.069897160827168-1.86104674202852-.681290315428669-1.930943936235053-1.677824620009233-.069897060691801-.996532401047261.681290160933713-1.861045535630183,1.677823989631179-1.93094269645826s1.861046370571785.681288428583684,1.930944040661416,1.677822699785793c.06931970243204.996182665777269-.681749499608486,1.860077307741449-1.677894055605975,1.929947164873738M7.025222004173884,35.702926868929353c-.996533828697466.069897160827168-1.86104674202852-.681290315428669-1.930943936235053-1.677824620010142-.069897060691801-.996532401046352.681290160933713-1.861045535630183,1.677823989631179-1.93094269645735s1.861046370571785.681288428583684,1.930944040661416,1.677822699785793-.681289789476978,1.861047422475167-1.677823618174443,1.930944583303244l-.000000475883098.000000033378456M6.643092028181854,30.25484509384296c-.996533828697466.069897160827168-1.86104674202852-.681290315428669-1.930943936235053-1.677824620010142-.069897060691801-.996532401046352.681290160933713-1.861045535630183,1.677823989631179-1.93094269645735s1.861046370571785.681288428583684,1.930944040661416,1.677822699785793-.681289789476978,1.861047422475167-1.677823618174443,1.930944583303244l-.000000475883098.000000033378456M85.556265348572197,82.326227735093198l-18.771176797041335,1.316615578643905c-.294427923949115.020651256743804-.54984403414619-.20128334155379-.570495290891813-.495711265499267-.020651256747442-.294427923949115.201283341551971-.549844034148919.495711265501996-.570495290894542l18.773649236654819-1.31678899624967c.294427923950934-.020651256743804.549844034145281.201283341557428.570495290890904.495711265506543.020651256743804.294427923950934-.20128334155379.549844034141643-.495711265499267.570495290889085M80.357163013273748,9.168727648017011l-18.773649282901715,1.316788999492928c-.294427924674892.020651256797464-.549844283710627-.201286880846055-.570495292294254-.495711266724356-.020651091323998-.294425565476558.20128330067746-.549844625300466.495711225352352-.570495882097021l18.773649282898987-1.31678899948929c.294427924676711-.020651256797464.549844283710627.201286880841508.570495333664439.495711856522576.020651008588175.294424385874663-.201283342043098.549844035498609-.495711266719809.570495292295163h0M152.914993366950512,63.792364224784251c-.996538111648988.069897461235087-1.861045418805588-.681288495341505-1.930942613011212-1.677822799922069-.069897194207442-.996534304582383.681284688273081-1.861045151776125,1.677822532892606-1.930946420079636.996538111648988-.069897461235087,1.861045418805588.681288495339686,1.930942613011212,1.677822799922069l.000000267029463.000003807066605c.069897194205623.996534304582383-.681284688273081,1.861045151777944-1.677822799922069,1.93094261301303M152.532863390957573,58.344282449696038c-.996538111648988.069897461235087-1.861045418805588-.681288495339686-1.930942613009393-1.67782279992025-.069897194207442-.996534304580564.681284688271262-1.861045151777944,1.677822532892606-1.930946420079636.996538111648988-.069897461235087,1.861045418805588.681288495341505,1.930942613009393,1.677822799922069l.000000267031282.000003807068424c.069897194203804.996534304580564-.6812846882749,1.861045151774306-1.677822799923888,1.930942613009393M152.150733414966453,52.896200674611464c-.996538111648988.069897461235087-1.861045418805588-.681288495341505-1.93094261301303-1.677822799922069-.069897194203804-.996534304582383.6812846882749-1.861045151776125,1.677822532894425-1.930946420079636.996538111648988-.069897461235087,1.861045418803769.681288495339686,1.930942613011212,1.677822799922069l.000000267027644.000003807066605c.069897194207442.996534304582383-.681284688271262,1.861045151777944-1.67782279992025,1.93094261301303M151.768603438973514,47.448118899523251c-.996538111648988.069897461235087-1.861045418803769-.681288495339686-1.930942613011212-1.67782279992025-.069897194205623-.996534304581473.681284688273081-1.861045151777034,1.677822532892606-1.930946420079636.996538111648988-.069897461235087,1.861045418805588.681288495340596,1.93094261301303,1.677822799922069l.000000267027644.000003807067515c.069897194207442.996534304581473-.681284688273081,1.861045151775215-1.677822799922069,1.930942613010302M151.386473462980575,42.000037124437767c-.996538111648988.069897461235087-1.861045418803769-.681288495340596-1.930942613009393-1.677822799921159-.069897194207442-.996534304581473.681284688271262-1.861045151777034,1.677822532892606-1.930946420079636.996538111648988-.069897461235087,1.861045418805588.681288495340596,1.930942613011212,1.677822799922069l.000000267029463.000003807067515c.069897194205623.996534304581473-.6812846882749,1.861045151776125-1.677822799923888,1.930942613011212M151.004343486989455,36.551955349351374c-.996538111648988.069897461235087-1.861045418805588-.681288495340596-1.930942613011212-1.677822799921159s.681284688273081-1.861045151777034,1.677822532894425-1.930946420079636c.996538111648988-.069897461235087,1.861045418803769.681288495340596,1.930942613009393,1.677822799922069l.000000267029463.000003807067515c.069897194205623.996534304581473-.681284688273081,1.861045151776125-1.677822799922069,1.930942613011212M150.622213510998336,31.103873574264981c-.996538111648988.069897461235087-1.861045418805588-.681288495340596-1.93094261301303-1.677822799921159-.069897194205623-.996534304581473.681284554759259-1.861047055310337,1.677822666408247-1.930944516545424.996537978135166-.069899364769299,1.861045418805588.681288495340596,1.930942613011212,1.677822799922069h0c.069897194207442.996534304580564-.68128455475744,1.861047055309427-1.677822666406428,1.930944516544514M150.240083535005397,25.655791799178587c-.996538111648988.069897461235087-1.861045418803769-.681288495340596-1.930942613011212-1.677822799921159s.68128455475744-1.861047055310337,1.677822666406428-1.930944516545424c.996537978135166-.069899364769299,1.861045418805588.681288495340596,1.93094261301303,1.677822799922069h0c.069897194205623.996534304580564-.681284554759259,1.861047055309427-1.677822666408247,1.930944516544514M149.857953559012458,20.207710024092194c-.996538111648988.069897461235087-1.861045418805588-.681288495340596-1.930942613009393-1.677822799921159-.069897194207442-.996534304581473.68128455475744-1.861047055310337,1.677822666406428-1.930944516545424.996537978135166-.069899364769299,1.861045418805588.681288495340596,1.930942613011212,1.677822799922069h0c.069897194205623.996534304580564-.681284554759259,1.861047055309427-1.677822666408247,1.930944516544514" style="fill:#a7ff00; stroke-width:0px;"/></g></g><g id="TICKET" style="isolation:isolate;"><g style="isolation:isolate;"><path d="M30.334556682506445,40.710908178560203l-.1181640625-1.6845703125,16.13427734375-1.13134765625.1181640625,1.6845703125-7.31982421875.51318359375.9658203125,14.3125-1.69677734375.119140625-.96630859375-14.3125-7.1171875.4990234375Z" style="fill:#000; stroke-width:0px;"/><path d="M51.970298870006445,37.513154272310203l1.1591796875,15.97998046875-1.77294921875.1240234375-1.08349609375-15.98486328125,1.697265625-.119140625Z" style="fill:#000; stroke-width:0px;"/><path d="M60.005455120006445,50.783173803560203c-1.76708984375-1.4287109375-2.720703125-3.232421875-2.87451171875-5.42236328125-.0771484375-1.1025390625.0634765625-2.18115234375.4228515625-3.22412109375.3583984375-1.056640625.916015625-1.99951171875,1.68505859375-2.82958984375.615234375-.66650390625,1.30126953125-1.22412109375,2.04736328125-1.658203125,1.11328125-.63720703125,2.4111328125-1.0087890625,3.82958984375-1.1083984375,1.5576171875-.109375,3.0419921875.19384765625,4.3583984375.81396484375.6572265625.29833984375,1.26904296875.67529296875,1.83447265625,1.11865234375.4716796875.3740234375.8818359375.7783203125,1.244140625,1.2236328125l-1.46044921875.955078125c-.291015625-.33544921875-.60498046875-.64404296875-.96826171875-.9248046875-.443359375-.337890625-.9228515625-.63525390625-1.44775390625-.865234375-.525390625-.23095703125-1.0712890625-.39599609375-1.65087890625-.49560546875-.57958984375-.0986328125-1.16748046875-.1337890625-1.7880859375-.09033203125-.9248046875.064453125-1.798828125.3037109375-2.599609375.6787109375-.78857421875.373046875-1.49072265625.880859375-2.0595703125,1.47998046875-.58154296875.60107421875-1.029296875,1.29443359375-1.34423828125,2.06689453125-.11767578125.314453125-.21875.6904296875-.28173828125,1.06396484375-.09765625.6044921875-.1337890625,1.18017578125-.09912109375,1.67431640625.0595703125.84765625.2939453125,1.64599609375.71435546875,2.37939453125.42041015625.7353515625.9482421875,1.359375,1.60791015625,1.8740234375.65966796875.5126953125,1.412109375.9052734375,2.2587890625,1.1767578125.84521484375.2587890625,1.73046875.3623046875,2.66796875.296875.62060546875-.0439453125,1.21044921875-.1611328125,1.7705078125-.3408203125.56005859375-.1787109375,1.08935546875-.4326171875,1.57763671875-.734375.474609375-.2998046875.90771484375-.6611328125,1.287109375-1.0576171875.32080078125-.328125.6015625-.677734375.841796875-1.064453125l1.57763671875.716796875c-.2822265625.5166015625-.63134765625.986328125-1.0458984375,1.4228515625-1.52587890625,1.646484375-3.57080078125,2.6171875-5.88818359375,2.7802734375-2.3681640625.166015625-4.43603515625-.46484375-6.21728515625-1.90625Z" style="fill:#000; stroke-width:0px;"/><path d="M77.486900432506445,35.710908178560203l.4912109375,7.181640625,9.17138671875-7.859375,2.8623046875-.20068359375-9.3564453125,7.94873046875c.458984375.005859375.8974609375.09033203125,1.302734375.2392578125.5478515625.1904296875,1.0380859375.47509765625,1.4716796875.8515625.3935546875.34130859375.884765625,1.0068359375,1.0615234375,1.337890625.2353515625.45458984375.384765625.95361328125.43359375,1.47119140625.017578125.0625.03515625.13720703125.0400390625.20068359375l-.0126953125.0009765625c.037109375.353515625.1357421875.677734375.296875.9716796875.162109375.3203125.3720703125.5849609375.6298828125.80859375.2568359375.224609375.548828125.39453125.888671875.5107421875.3525390625.1396484375.740234375.21484375,1.1591796875.1982421875l2.380859375-.1669921875.1171875,1.671875-2.6220703125.18359375c-.6494140625-.0048828125-1.1767578125-.0830078125-1.5810546875-.232421875-.5478515625-.19140625-1.0390625-.474609375-1.47265625-.8515625-.447265625-.388671875-.8095703125-.833984375-1.0615234375-1.337890625-.265625-.5283203125-.4189453125-1.078125-.470703125-1.6337890625-.005859375-.0888671875-.0107421875-.15234375-.0263671875-.2021484375-.033203125-.2900390625-.115234375-.55126953125-.2607421875-.80908203125-.1630859375-.3193359375-.3720703125-.58447265625-.62890625-.8076171875-.2578125-.224609375-.5498046875-.39453125-.888671875-.5107421875-.3017578125-.119140625-.53515625-.19140625-.7275390625-.203125l.0009765625.0126953125-2.595703125.18212890625.4814453125,7.041015625-1.697265625.119140625-1.083984375-15.9970703125,1.69677734375-.119140625Z" style="fill:#000; stroke-width:0px;"/><path d="M109.054771526256445,33.509248022310203l.119140625,1.697265625-14.462890625,1.0146484375.388671875,5.35546875,12.06640625-.884765625.119140625,1.697265625-12.0537109375.8837890625.400390625,5.53271484375,14.4501953125-1.0126953125.119140625,1.697265625-16.146484375,1.1318359375-1.1591796875-15.97900390625,16.1591796875-1.1337890625Z" style="fill:#000; stroke-width:0px;"/><path d="M112.144615276256445,34.973115209810203l-.1181640625-1.6845703125,16.1337890625-1.1318359375.1181640625,1.6845703125-7.3203125.51318359375.9658203125,14.3134765625-1.6962890625.119140625-.9658203125-14.3134765625-7.1171875.49951171875Z" style="fill:#000; stroke-width:0px;"/></g></g></g></svg>