<svg xmlns="http://www.w3.org/2000/svg" xmlns:xlink="http://www.w3.org/1999/xlink" width="128.72" height="74.262" viewBox="0 0 128.72 74.262">
  <defs>
    <clipPath id="clip-path">
      <rect id="Rectangle_31" data-name="Rectangle 31" width="124.437" height="65.741" fill="#a7ff00"/>
    </clipPath>
  </defs>
  <g id="Groupe_165" data-name="Groupe 165" transform="translate(-88.297 -1989.38)">
    <g id="Groupe_68" data-name="Groupe 68" transform="matrix(0.998, -0.07, 0.07, 0.998, 88.297, 1998.061)">
      <g id="Groupe_67" data-name="Groupe 67" clip-path="url(#clip-path)">
        <path id="Tracé_70" data-name="Tracé 70" d="M124.263,10.361A10.2,10.2,0,0,1,114.076.175V0H10.361V.175A10.2,10.2,0,0,1,.175,10.361H0V55.381H.175A10.2,10.2,0,0,1,10.361,65.567v.175H114.076v-.175a10.2,10.2,0,0,1,10.186-10.186h.175V10.361Zm-120,41.217a1.467,1.467,0,1,1,1.467-1.467,1.467,1.467,0,0,1-1.467,1.467m0-4.427a1.467,1.467,0,1,1,1.467-1.467A1.467,1.467,0,0,1,4.265,47.15m0-4.427a1.467,1.467,0,1,1,1.467-1.467,1.467,1.467,0,0,1-1.467,1.467m0-4.427a1.467,1.467,0,1,1,1.467-1.467A1.467,1.467,0,0,1,4.265,38.3m0-4.427A1.467,1.467,0,1,1,5.732,32.4a1.467,1.467,0,0,1-1.467,1.467m0-4.427a1.467,1.467,0,1,1,1.467-1.467,1.467,1.467,0,0,1-1.467,1.467m0-4.428a1.467,1.467,0,1,1,1.467-1.467,1.467,1.467,0,0,1-1.467,1.467m0-4.427A1.467,1.467,0,1,1,5.732,19.12a1.467,1.467,0,0,1-1.467,1.467m0-4.427a1.467,1.467,0,1,1,1.467-1.467A1.467,1.467,0,0,1,4.265,16.16M65.325,63.4H59.17a.175.175,0,1,1,0-.349h6.155a.175.175,0,0,1,0,.349m0-60.266H59.17a.175.175,0,0,1,0-.349h6.155a.175.175,0,0,1,0,.349m55.328,48.446a1.467,1.467,0,1,1,1.467-1.467,1.467,1.467,0,0,1-1.467,1.467m0-4.427a1.467,1.467,0,1,1,1.467-1.467,1.467,1.467,0,0,1-1.467,1.467m0-4.427a1.467,1.467,0,1,1,1.467-1.467,1.467,1.467,0,0,1-1.467,1.467m0-4.427a1.467,1.467,0,1,1,1.467-1.467,1.467,1.467,0,0,1-1.467,1.467m0-4.427A1.467,1.467,0,1,1,122.12,32.4a1.467,1.467,0,0,1-1.467,1.467m0-4.427a1.467,1.467,0,1,1,1.467-1.467,1.467,1.467,0,0,1-1.467,1.467m0-4.428a1.467,1.467,0,1,1,1.467-1.467,1.467,1.467,0,0,1-1.467,1.467m0-4.427a1.467,1.467,0,1,1,1.467-1.467,1.467,1.467,0,0,1-1.467,1.467m0-4.427a1.467,1.467,0,1,1,1.467-1.467,1.467,1.467,0,0,1-1.467,1.467" transform="translate(0 0)" fill="#a7ff00"/>
      </g>
    </g>
    <text id="TICKET" transform="matrix(0.998, -0.07, 0.07, 0.998, 103.141, 2016.822)" font-size="24" font-family="DINdong"><tspan x="2" y="20">TICKET</tspan></text>
  </g>
</svg>
